<svg width="558" height="377" viewBox="0 0 558 377" fill="none" xmlns="http://www.w3.org/2000/svg">
<g clip-path="url(#clip0_4529_38245)">
<mask id="mask0_4529_38245" style="mask-type:luminance" maskUnits="userSpaceOnUse" x="0" y="0" width="558" height="377">
<path d="M558 0H0V377H558V0Z" fill="white"/>
</mask>
<g mask="url(#mask0_4529_38245)">
<path d="M558 0H0V377H558V0Z" fill="#F6F6F6"/>
<path d="M143.848 219.088V270.703H99.3447V219.895C106.799 226.764 143.848 219.088 143.848 219.088Z" fill="#C78982"/>
<path d="M99.1382 227.301V209.889H143.641V247.194C136.409 247.194 131.383 247.194 125.445 245.174C115.846 241.964 106.087 235.213 99.1382 227.301Z" fill="#99644D"/>
<path d="M77.3091 169.294C77.3091 168.123 77.3617 166.969 77.4503 165.832C77.5867 164.223 77.814 162.623 78.1305 161.039C78.1305 160.863 78.1305 160.678 78.1305 160.501C78.1305 137.452 94.5071 118.448 115.672 115.699C117.429 115.467 119.2 115.349 120.972 115.346C144.628 115.346 163.814 135.611 163.814 160.501C163.814 160.668 163.814 160.836 163.814 161.004C164.3 163.472 164.573 165.978 164.627 168.493C164.627 168.766 164.627 169.03 164.627 169.303C164.627 169.303 164.768 171.066 164.689 174.176C164.636 176.193 164.52 178.193 164.309 180.193C164.255 180.731 164.203 181.26 164.114 181.788C163.855 183.938 163.508 186.067 163.072 188.176C162.313 191.871 161.282 195.504 159.989 199.048C157.704 205.359 154.629 211.358 150.838 216.9L150.661 217.173C150.016 218.098 149.363 219.021 148.665 219.922C146.198 223.215 143.478 226.309 140.529 229.181L140.291 229.402C128.348 242.619 114.382 243.191 101.654 229.402C101.581 229.323 101.504 229.251 101.424 229.181C97.075 224.93 93.2233 220.199 89.9408 215.084C87.883 211.903 86.0552 208.579 84.4724 205.137C82.5185 200.912 80.9461 196.521 79.7735 192.017C78.5644 187.442 77.7898 182.763 77.4589 178.043C77.353 176.757 77.2911 175.453 77.2558 174.158C77.2558 173.691 77.2558 173.277 77.2558 172.828C77.2027 170.581 77.3091 169.294 77.3091 169.294Z" fill="#C78982"/>
<path d="M73.5 243.796C78.3878 245.75 85.6429 247.271 99.5028 247.271C99.5028 247.271 99.6787 227.349 99.1932 226.82C98.7076 226.291 98.0433 225.32 97.5758 224.791C97.1082 224.262 96.6319 223.709 96.1732 223.172C95.7143 222.635 95.3353 222.168 94.929 221.647C94.8411 221.55 94.7705 221.453 94.6908 221.356C94.3669 220.996 94.0723 220.61 93.8089 220.203C89.2388 211.907 87.7656 209.238 85.7803 196.839C83.9189 185.197 85.1629 174.427 95.7323 170.112C110.368 164.079 120.893 150.271 125.551 135.168C125.551 150.649 136.482 163.947 147.068 170.455C157.452 176.84 155.59 189.089 154.77 196.875C153.465 209.203 147.789 219.561 143.784 225.787L143.301 279.744L144.183 279.939C175.061 286.753 201.342 257.042 190.774 227.318L162.939 146.334C159.11 131.416 148.083 119.536 134.153 114.913C131.659 114.073 129.088 113.483 126.477 113.151C124.723 112.917 122.954 112.796 121.184 112.79C103.76 112.79 88.3391 124.239 81.8549 140.09C81.2722 141.526 80.6815 142.917 80.0901 144.309L60.8049 202.317C56.0144 214.795 54.0823 236.072 73.5 243.796Z" fill="black"/>
<path d="M188.165 278.879C188.165 278.879 185.276 266.369 187.943 260.527L189.365 257.416L156.115 271.405L188.165 278.879Z" fill="black"/>
<path d="M198.556 377C198.552 376.977 198.552 376.952 198.556 376.93H44.4208C44.4208 376.93 44.4208 376.973 44.4208 377H0V376.876L18.065 317.044L21.7822 304.701C25.314 289.86 39.9177 278.831 55.228 276.212L90.9782 267.668C93.3573 267.096 95.475 265.741 96.9902 263.824C98.5049 261.904 99.3294 259.531 99.331 257.087V247.194H143.655V257.087C143.658 259.535 144.486 261.911 146.006 263.83C147.526 265.749 149.65 267.102 152.034 267.668L187.793 276.228C203.094 278.875 217.707 289.879 221.239 304.717L242.977 377H198.556Z" fill="#276EF1"/>
<path d="M197.451 377H162.938L52.6875 266.614H87.1745L197.451 377Z" fill="#F6F6F6"/>
<path d="M138.25 169.04C136.116 169.043 134.01 169.515 132.083 170.421C130.156 171.328 128.455 172.646 127.106 174.28L126.296 175.258C125.174 176.614 124.561 178.313 124.56 180.066C124.56 180.507 124.383 180.931 124.067 181.243C123.752 181.555 123.324 181.73 122.878 181.73H118.071C117.631 181.721 117.212 181.542 116.904 181.231C116.597 180.919 116.424 180.501 116.424 180.066C116.411 178.308 115.782 176.608 114.644 175.258L113.843 174.289C112.494 172.642 110.792 171.314 108.86 170.4C106.928 169.486 104.814 169.009 102.672 169.005H85.021C84.9923 169.005 84.9653 169.016 84.9452 169.036C84.9252 169.055 84.9141 169.083 84.9141 169.111V184.61C84.9165 188.738 86.5755 192.696 89.5265 195.614C92.4775 198.533 96.4793 200.172 100.651 200.172C104.145 200.171 107.538 199.019 110.296 196.898C113.054 194.777 115.019 191.808 115.881 188.459C116.15 187.333 116.773 186.322 117.662 185.57C118.443 184.936 119.423 184.589 120.434 184.589C121.445 184.589 122.425 184.936 123.207 185.57C124.096 186.325 124.72 187.34 124.987 188.467C125.834 191.748 127.739 194.666 130.414 196.778C133.089 198.89 136.387 200.081 139.808 200.172C148.762 200.436 156.017 192.986 156.017 184.126V169.172C156.017 169.144 156.005 169.117 155.985 169.097C155.966 169.077 155.938 169.067 155.91 169.067L138.25 169.04Z" fill="black"/>
<path d="M125.55 213.489C124.848 213.085 124.026 212.903 123.205 212.969C122.384 213.033 121.606 213.345 120.986 213.855C120.365 213.345 119.588 213.033 118.766 212.969C117.945 212.903 117.123 213.085 116.421 213.489L109.468 217.528L110.754 218.571C113.595 220.881 117.223 222.151 120.977 222.153C124.731 222.151 128.359 220.881 131.2 218.571L132.486 217.528L125.55 213.489Z" fill="#99644D"/>
<path d="M434.175 286.545H370.745L370.755 255.257L370.745 202.224H434.175V286.545Z" fill="#FFAFA1"/>
<path d="M248.241 376.793L260.524 323.807C266.428 302.757 278.643 285.718 298.818 280.771L346.763 268.982C360.702 265.557 370.573 266.579 370.538 251.375V249.543H379.023C380.105 249.543 381.178 249.733 382.196 250.107C383.406 250.545 384.518 251.218 385.466 252.088L401.77 267.019L419.606 251.867C420.492 251.107 421.506 250.512 422.602 250.107C423.62 249.737 424.693 249.547 425.775 249.543H434.47V251.375C434.47 266.561 444.298 265.53 458.243 268.982L506.188 280.771C526.367 285.727 542.476 301.794 548.384 322.844L557.277 376.793H248.241Z" fill="black"/>
<path d="M441.865 173.003L440.314 205.29C445.655 204.1 450.719 197.813 452.222 192.504L455.419 181.048C455.803 179.354 455.727 177.586 455.194 175.931C454.668 174.277 453.706 172.797 452.411 171.648C451.633 171.028 450.743 170.57 449.792 170.303C448.84 170.034 447.843 169.962 446.86 170.088C445.88 170.214 444.932 170.537 444.073 171.038C443.219 171.538 442.471 172.207 441.873 173.003H441.865Z" fill="#FFAFA1"/>
<path d="M363.513 173.003L365.119 205.29C359.597 204.1 354.362 197.813 352.812 192.504L349.504 181.048C349.112 179.351 349.197 177.582 349.748 175.928C350.301 174.273 351.3 172.794 352.64 171.648C353.443 171.028 354.364 170.57 355.349 170.303C356.333 170.034 357.363 169.962 358.379 170.088C359.395 170.214 360.373 170.537 361.257 171.038C362.142 171.538 362.917 172.207 363.532 173.003H363.513Z" fill="#FFAFA1"/>
<path d="M449.643 170.644L448.212 178.072C447.956 179.413 447.556 181.045 447.061 182.88C442.703 199.006 430.409 231.189 430.409 231.189C428.101 236.688 424.218 241.383 419.245 244.684C414.272 247.988 408.434 249.75 402.46 249.75C396.488 249.75 390.647 247.988 385.676 244.684C380.703 241.383 376.818 236.688 374.512 231.189C374.512 231.189 362.217 198.998 357.859 182.88C357.364 181.045 356.975 179.421 356.709 178.072L355.278 170.671C349.622 141.47 371.259 113.672 401.019 112.79H402.46H403.901C433.644 113.672 455.302 141.47 449.643 170.644Z" fill="#FFAFA1"/>
<path d="M450.539 159.672C449.798 134.863 430.469 113.538 405.09 112.79H403.692H402.472H401.26H399.857C374.421 113.538 355.142 134.863 354.391 159.672C354.277 164.503 354.872 169.325 356.158 173.985L359.49 186.38H365.167L363.61 182.861C359.938 174.508 359.738 165.048 363.053 156.548C364.265 153.356 365.049 150.02 365.388 146.625L365.759 143.299C366.298 141.234 367.341 139.333 368.796 137.764C370.249 136.196 372.07 135.008 374.095 134.306C376.12 133.604 378.288 133.41 380.406 133.74C382.526 134.071 384.529 134.915 386.242 136.2C390.897 139.705 396.576 141.601 402.414 141.601C408.252 141.601 413.932 139.705 418.589 136.2C420.835 134.49 423.585 133.562 426.413 133.561C429.309 133.552 432.125 134.503 434.418 136.263C436.712 138.023 438.355 140.492 439.082 143.282L439.443 146.607C439.786 150.002 440.574 153.338 441.786 156.531C445.097 165.031 444.897 174.49 441.229 182.844L439.674 186.363H445.347L448.683 173.967C449.992 169.316 450.615 164.501 450.539 159.672Z" fill="#7C4F40"/>
<path d="M445.492 185.815L435.157 224.866C433.138 232.032 428.853 238.338 422.951 242.829C417.049 247.32 409.852 249.75 402.454 249.75C395.055 249.75 387.859 247.32 381.957 242.829C376.054 238.338 371.771 232.032 369.752 224.866L359.201 185.298L365.084 186.124L372.756 203.576C375.317 210.777 384.75 210.261 389.543 207.645L393.975 205.218C396.568 203.805 399.471 203.064 402.419 203.064C405.366 203.064 408.269 203.805 410.862 205.218L415.294 207.645C420.09 210.261 429.52 210.777 432.082 203.576L439.711 186.228L445.492 185.815Z" fill="#7C4F40"/>
<path d="M435.946 162.445L431.477 161.832L431.105 161.752L428.06 161.254C425.321 160.803 422.538 160.71 419.776 160.978C417.552 161.202 415.422 161.999 413.593 163.293C411.766 164.587 410.3 166.334 409.338 168.364C409.058 168.95 408.585 169.42 407.996 169.692C407.41 169.965 406.748 170.023 406.124 169.858C404.066 169.286 401.892 169.286 399.836 169.858C399.211 170.023 398.548 169.965 397.962 169.692C397.375 169.42 396.9 168.95 396.622 168.364C395.66 166.334 394.194 164.587 392.365 163.293C390.536 161.999 388.408 161.202 386.184 160.978C383.422 160.71 380.637 160.803 377.9 161.254L374.853 161.752L374.483 161.832L369.996 162.436C368.394 162.628 366.932 163.449 365.931 164.721C364.927 165.994 364.465 167.613 364.645 169.227C364.7 169.679 364.826 170.119 365.016 170.533C365.956 172.488 366.779 174.497 367.479 176.55C367.842 177.634 368.297 178.684 368.839 179.688C369.909 181.694 371.348 183.476 373.078 184.941C374.814 186.48 376.862 187.619 379.079 188.279C381.296 188.939 383.631 189.104 385.918 188.763C388.808 188.327 391.494 187.005 393.61 184.977C395.726 182.949 397.169 180.314 397.743 177.43C397.856 176.79 397.931 176.142 397.964 175.493C397.986 174.875 398.209 174.281 398.595 173.8C398.981 173.32 399.514 172.978 400.111 172.826C401.981 172.364 403.934 172.364 405.806 172.826C406.401 172.978 406.933 173.32 407.319 173.8C407.707 174.281 407.928 174.875 407.951 175.493C407.984 176.142 408.058 176.79 408.172 177.43C408.748 180.312 410.193 182.946 412.307 184.972C414.425 186.998 417.109 188.319 419.997 188.754C422.286 189.099 424.623 188.937 426.844 188.278C429.065 187.62 431.117 186.481 432.854 184.941C434.586 183.485 436.027 181.711 437.102 179.715C437.645 178.711 438.099 177.661 438.462 176.577C439.162 174.524 439.986 172.515 440.927 170.56C441.117 170.146 441.239 169.705 441.295 169.253C441.481 167.637 441.02 166.013 440.017 164.737C439.014 163.46 437.55 162.637 435.946 162.445ZM395.552 176.942C395.078 179.334 393.88 181.521 392.124 183.204C390.367 184.887 388.139 185.984 385.743 186.346C383.843 186.624 381.909 186.485 380.07 185.937C378.232 185.389 376.533 184.446 375.092 183.172C373.652 181.964 372.454 180.493 371.558 178.835C370.679 177.169 370.082 175.366 369.793 173.502C369.698 172.932 369.663 172.355 369.688 171.778C369.775 169.878 370.507 168.066 371.763 166.643C373.018 165.221 374.721 164.276 376.585 163.965L379.11 163.556C381.383 163.18 383.697 163.103 385.988 163.325C387.493 163.472 388.949 163.937 390.259 164.691C391.572 165.445 392.712 166.47 393.602 167.698C394.281 168.658 394.754 169.751 394.989 170.906C395.183 171.796 395.402 173.067 395.571 174.035C395.734 174.998 395.728 175.982 395.552 176.942ZM436.291 171.796C436.313 172.372 436.278 172.95 436.183 173.52C435.894 175.384 435.298 177.187 434.418 178.853C433.525 180.51 432.325 181.982 430.884 183.19C429.443 184.463 427.744 185.407 425.907 185.955C424.068 186.502 422.133 186.641 420.234 186.363C417.837 186.001 415.61 184.904 413.853 183.222C412.098 181.539 410.901 179.352 410.424 176.959C410.255 175.998 410.255 175.014 410.424 174.053C410.583 173.084 410.812 171.796 411.006 170.924C411.242 169.769 411.712 168.676 412.394 167.715C413.283 166.491 414.423 165.471 415.734 164.72C417.043 163.97 418.496 163.506 419.997 163.36C422.29 163.139 424.602 163.216 426.875 163.591L429.402 164C431.266 164.311 432.967 165.257 434.222 166.679C435.477 168.101 436.21 169.913 436.299 171.813L436.291 171.796Z" fill="white"/>
<path d="M499.65 269.17L398.127 371.288L397.561 371.854L397.728 371.889H363.23L363.072 371.854L363.559 371.36L363.629 371.288L465.169 269.17H499.65Z" fill="#F6F6F6"/>
<path d="M517.97 375.244C517.423 373.732 516.863 372.23 516.267 370.745C506.977 347.763 490.889 328.135 470.13 314.47C449.373 300.805 424.931 293.746 400.051 294.236C375.169 294.723 351.024 302.734 330.824 317.203C310.624 331.671 295.323 351.913 286.952 375.244C286.75 375.831 286.537 376.419 286.343 377H308.872C309.128 376.411 309.383 375.822 309.648 375.244C317.344 357.902 329.786 343.066 345.551 332.433C361.317 321.799 379.772 315.796 398.804 315.11C417.835 314.422 436.677 319.08 453.173 328.552C469.67 338.021 483.16 351.922 492.095 368.665C493.251 370.807 494.327 373.003 495.309 375.244C495.573 375.831 495.829 376.419 496.075 377H518.579L517.97 375.244Z" fill="#CBCBCB"/>
<path d="M328.801 365.824C323.328 367.76 317.511 368.82 312.137 371.206C311.978 371.276 308.597 375.312 306.419 376.213C305.614 376.517 304.796 376.781 303.966 377H271.438L271.492 375.965C271.531 375.537 271.531 375.106 271.492 374.676L271.048 370.524C270.98 369.966 270.98 369.404 271.048 368.846C271.157 367.826 271.49 366.843 272.02 365.967C272.551 365.089 273.267 364.337 274.12 363.767H274.173L275.802 362.645C277.933 361.164 279.652 359.17 280.804 356.849L282.39 353.616C282.765 352.682 283.337 351.841 284.066 351.147C284.795 350.451 285.662 349.92 286.613 349.587H286.745L287.251 349.445L289.411 348.827C291.551 348.199 293.484 347.009 295.007 345.382L296.316 344.004C297.065 343.196 297.992 342.576 299.022 342.19C300.054 341.804 301.161 341.661 302.257 341.777C302.839 341.841 303.409 341.977 303.956 342.184C304.501 342.386 305.019 342.657 305.498 342.987L312.872 346.813C314.959 347.914 316.772 349.466 318.184 351.354L328.801 365.824Z" fill="#FFAFA1"/>
<path d="M540.005 376.612L539.904 377H492.045L491.461 376.806C489.236 376.039 484.515 371.617 482.258 370.92L492.541 357.466C493.967 355.584 495.794 354.037 497.896 352.938L505.324 349.123C505.811 348.794 506.331 348.524 506.884 348.321C508.203 347.827 509.646 347.737 511.017 348.061C512.388 348.383 513.631 349.108 514.582 350.137L515.903 351.511C517.441 353.107 519.382 354.268 521.525 354.876L523.699 355.493L524.21 355.634H524.343C525.298 355.966 526.17 356.497 526.9 357.191C527.637 357.884 528.209 358.722 528.589 359.652L530.195 362.876C531.345 365.194 533.085 367.184 535.234 368.656L536.865 369.776H536.917C537.775 370.346 538.496 371.096 539.029 371.97C539.561 372.846 539.894 373.825 540.005 374.841C540.083 375.428 540.083 376.025 540.005 376.612Z" fill="#FFAFA1"/>
<path d="M563.574 377L241.738 376.938L261.705 376.347C265.142 376.242 268.571 376.05 271.996 375.775C278.864 375.223 285.697 374.317 292.47 373.059C295.259 372.548 298.042 371.96 300.818 371.296C309.189 369.379 317.428 366.942 325.486 363.996L325.62 363.942C328.349 362.943 331.061 361.885 333.755 360.769C335.37 360.104 336.978 359.416 338.58 358.706L338.956 358.547C343.774 356.419 348.646 354.533 353.571 352.886L354.319 352.639L355.458 352.261C356.232 352.004 357.017 351.759 357.791 351.529C360.165 350.788 362.572 350.106 365.01 349.482C391.137 342.69 418.552 342.388 444.825 348.602C450.452 349.928 456.008 351.544 461.472 353.442C463.79 354.242 466.102 355.099 468.404 356.016C469.222 356.334 470.041 356.661 470.855 357.003L479.469 360.53C483.202 362.065 486.967 363.492 490.757 364.816C493.507 365.766 496.267 366.648 499.037 367.46C503.979 368.948 508.959 370.243 513.979 371.348C516.24 371.848 518.513 372.307 520.783 372.724C525.984 373.689 531.204 374.443 536.452 374.99C539.047 375.263 541.658 375.484 544.264 375.659H545.005L563.574 377Z" fill="white"/>
<path d="M408.498 213.37C407.538 213.047 406.531 212.911 405.523 212.967C403.649 213.062 401.783 213.062 399.91 212.967C398.903 212.911 397.893 213.047 396.933 213.37L388.137 216.487L389.77 217.301C393.839 219.205 398.257 220.164 402.716 220.108C407.175 220.164 411.595 219.205 415.664 217.301L417.294 216.487L408.498 213.37Z" fill="#FFAFA1"/>
</g>
</g>
<defs>
<clipPath id="clip0_4529_38245">
<rect width="558" height="377" rx="12" fill="white"/>
</clipPath>
</defs>
</svg>
